# xmcd
#
# Track frame offsets: 
#        150
#        21740
#        42390
#        60612
#        93107
#        115665
#        136290
#        160402
#        180115
#        204150
#        226982
#        255367
#
# Disc length: 3617 seconds
#
# Revision: 23
# Processed by: cddbd v1.5.2PL0 Copyright (c) Steve Scherf et al.
# Submitted via: ExactAudioCopy v1.0b6
#
DISCID=920e1f0c
DTITLE=Eric Clapton - Back Home
DYEAR=2005
DGENRE=Blues
TTITLE0=So Tired
TTITLE1=Say What You Will
TTITLE2=I'm Going Left
TTITLE3=Love Don't Love Nobody
TTITLE4=Revolution
TTITLE5=Love Comes To Everyone
TTITLE6=Lost And Found
TTITLE7=Piece Of My Heart
TTITLE8=One Day
TTITLE9=One Track Mind
TTITLE10=Run Home To Me
TTITLE11=Back Home
EXTD=Vocals and Guitar - Eric Clapton, Drums - Steve Gadd, Abraham Labor
EXTD=iel Jr, Bass - Nathan East, Hammond Organ, Piano and Keyboards - Bi
EXTD=lly Preston, Guitars - Doyle Bramhall II, Andy Fairweather Low, D
EXTD=rum Programming and Percussion - Nicky 'Misschief' Shaw, Keyboards 
EXTD=& Programming - Simon Climie, Backing Vocals - Sharon White, Mich
EXTD=elle John Lawrence Johnson. Guest Musicians: Toby Baker, Chris St
EXTD=ainton, Pino Palladino, Robert Randolph, John Mayer, Steve Winwoo
EXTD=d, Stephen Marley, Paul Fakhourie, Vince Gill. Strings: Nick Ingm
EXTD=an, Gavin Wright, Isobelle Griffiths. The Kick Horns: Simon Clark
EXTD=e, Roddy Lorimer, Tim Sanders with Annie Whitehead and Paul Spong
EXTD=Produced by Eric Clapton, Simon Climie. Recorded by Alan Dougla
EXTD=s. Pro Tools: Simon Climie. Mixed by Mick Guzauski. Mix Assistant
EXTD=Tom Bender. Assistant Engineering: Philippe Rose, George Renwick
EXTD=Additional Pro Tools: Joel Evenden, Jonathan Shakhovskoy. Secon
EXTD=d Assistant: Bea Henkel. Album Mastered by Bob Ludwig at Gateway 
EXTD=Mastering. REPRISE 49395-2.
EXTT0=
EXTT1=
EXTT2=
EXTT3=
EXTT4=
EXTT5=
EXTT6=
EXTT7=
EXTT8=
EXTT9=
EXTT10=
EXTT11=
PLAYORDER=
